<svg xmlns="http://www.w3.org/2000/svg" width="103.92" height="103.92" viewBox="0 0 103.92 103.92">
    <defs>
        <style>
            .cls-1{fill:#516cf0}
        </style>
    </defs>
    <path id="facebook-square-brands" d="M92.786 32H11.134A11.134 11.134 0 0 0 0 43.134v81.651a11.134 11.134 0 0 0 11.134 11.135h31.837v-35.33H28.358V83.96h14.613V71.285c0-14.417 8.583-22.38 21.728-22.38a88.533 88.533 0 0 1 12.879 1.123v14.15h-7.253c-7.147 0-9.376 4.435-9.376 8.984v10.8H76.9l-2.552 16.63h-13.4v35.33h31.838a11.134 11.134 0 0 0 11.134-11.134V43.134A11.134 11.134 0 0 0 92.786 32z" class="cls-1" transform="translate(0 -32)"/>
</svg>
