<svg xmlns="http://www.w3.org/2000/svg" width="221.261" height="177.006" viewBox="0 0 221.261 177.006">
    <defs>
        <style>
            .cls-1{fill:none}.cls-2{clip-path:url(#clip-path)}.cls-3{fill:#558ed9}
        </style>
        <clipPath id="clip-path">
            <path d="M0 0h221.261v177.006H0z" class="cls-1"/>
        </clipPath>
    </defs>
    <g id="heart-rate-solid" class="cls-2">
        <path id="heart-rate-solid-2" d="M215.73 77.441h-49.784a11.068 11.068 0 0 0-9.9 6.116l-9.175 18.354-25.564-93.759a11.068 11.068 0 0 0-21.5.595L75.906 120.3l-9.953-34.838a11.065 11.065 0 0 0-10.638-8.021H5.532A5.53 5.53 0 0 0 0 82.973v11.063a5.53 5.53 0 0 0 5.532 5.532H46.97l19.837 69.417a11.062 11.062 0 0 0 10.631 8.021c.124 0 .252 0 .377-.007a11.073 11.073 0 0 0 10.448-8.74l23.661-110.424 21.224 77.829a11.065 11.065 0 0 0 20.57 2.036l19.067-38.133h42.945a5.53 5.53 0 0 0 5.532-5.532V82.973a5.53 5.53 0 0 0-5.532-5.532z" class="cls-3" data-name="heart-rate-solid"/>
    </g>
</svg>
