<svg xmlns="http://www.w3.org/2000/svg" width="103.918" height="103.918" viewBox="0 0 103.918 103.918">
    <defs>
        <style>
            .cls-1{fill:#51c0f0}
        </style>
    </defs>
    <path id="twitter-square-brands" d="M92.784 32h-81.65A11.137 11.137 0 0 0 0 43.134v81.65a11.137 11.137 0 0 0 11.134 11.134h81.65a11.137 11.137 0 0 0 11.134-11.134v-81.65A11.137 11.137 0 0 0 92.784 32zM81.441 68.835c.046.649.046 1.322.046 1.972 0 20.111-15.309 43.284-43.284 43.284a43.084 43.084 0 0 1-23.358-6.82 32.05 32.05 0 0 0 3.665.186 30.5 30.5 0 0 0 18.882-6.495 15.233 15.233 0 0 1-14.219-10.554 16.4 16.4 0 0 0 6.866-.278 15.214 15.214 0 0 1-12.178-14.939v-.186a15.2 15.2 0 0 0 6.866 1.925 15.181 15.181 0 0 1-6.773-12.665 15.023 15.023 0 0 1 2.064-7.678A43.2 43.2 0 0 0 51.379 72.5a15.246 15.246 0 0 1 25.957-13.894 29.811 29.811 0 0 0 9.65-3.665 15.174 15.174 0 0 1-6.68 8.374 30.275 30.275 0 0 0 8.768-2.366 32.022 32.022 0 0 1-7.633 7.886z" class="cls-1" transform="translate(0 -32)"/>
</svg>
