<svg xmlns="http://www.w3.org/2000/svg" width="147.798" height="103.92" viewBox="0 0 147.798 103.92">
    <defs>
        <style>
            .cls-1{fill:#f76783}
        </style>
    </defs>
    <path id="youtube-brands" d="M159.642 80.26a18.571 18.571 0 0 0-13.067-13.152C135.049 64 88.832 64 88.832 64s-46.217 0-57.743 3.108A18.571 18.571 0 0 0 18.021 80.26c-3.088 11.6-3.088 35.805-3.088 35.805s0 24.2 3.088 35.805a18.294 18.294 0 0 0 13.067 12.942c11.526 3.108 57.743 3.108 57.743 3.108s46.217 0 57.743-3.108a18.294 18.294 0 0 0 13.067-12.942c3.088-11.6 3.088-35.805 3.088-35.805s.001-24.204-3.087-35.805zm-85.926 57.78V94.089l38.629 21.976z" class="cls-1" transform="translate(-14.933 -64)"/>
</svg>
